{
	"patcher" : 	{
		"fileversion" : 1,
		"appversion" : 		{
			"major" : 7,
			"minor" : 2,
			"revision" : 2,
			"architecture" : "x86",
			"modernui" : 1
		}
,
		"rect" : [ 422.0, 225.0, 1022.0, 430.0 ],
		"bglocked" : 0,
		"openinpresentation" : 0,
		"default_fontsize" : 12.0,
		"default_fontface" : 0,
		"default_fontname" : "Arial",
		"gridonopen" : 1,
		"gridsize" : [ 15.0, 15.0 ],
		"gridsnaponopen" : 1,
		"objectsnaponopen" : 1,
		"statusbarvisible" : 2,
		"toolbarvisible" : 1,
		"lefttoolbarpinned" : 0,
		"toptoolbarpinned" : 0,
		"righttoolbarpinned" : 0,
		"bottomtoolbarpinned" : 0,
		"toolbars_unpinned_last_save" : 0,
		"tallnewobj" : 0,
		"boxanimatetime" : 200,
		"enablehscroll" : 1,
		"enablevscroll" : 1,
		"devicewidth" : 0.0,
		"description" : "",
		"digest" : "",
		"tags" : "",
		"style" : "",
		"subpatcher_template" : "",
		"boxes" : [ 			{
				"box" : 				{
					"id" : "obj-9",
					"maxclass" : "newobj",
					"numinlets" : 5,
					"numoutlets" : 1,
					"outlettype" : [ "" ],
					"patching_rect" : [ 112.5, 272.366577, 93.0, 22.0 ],
					"style" : "",
					"text" : "zmap 0 15 0 15"
				}

			}
, 			{
				"box" : 				{
					"id" : "obj-7",
					"maxclass" : "newobj",
					"numinlets" : 2,
					"numoutlets" : 2,
					"outlettype" : [ "", "" ],
					"patching_rect" : [ 45.0, 198.0, 54.0, 22.0 ],
					"style" : "",
					"text" : "gate 2 1"
				}

			}
, 			{
				"box" : 				{
					"id" : "obj-5",
					"maxclass" : "newobj",
					"numinlets" : 1,
					"numoutlets" : 2,
					"outlettype" : [ "int", "" ],
					"patching_rect" : [ 395.5, 157.0, 53.0, 22.0 ],
					"style" : "",
					"text" : "t 2 l"
				}

			}
, 			{
				"box" : 				{
					"id" : "obj-1",
					"maxclass" : "newobj",
					"numinlets" : 1,
					"numoutlets" : 2,
					"outlettype" : [ "int", "int" ],
					"patching_rect" : [ 319.0, 157.0, 53.0, 22.0 ],
					"style" : "",
					"text" : "t 1 i"
				}

			}
, 			{
				"box" : 				{
					"id" : "obj-346",
					"linecount" : 5,
					"maxclass" : "comment",
					"numinlets" : 1,
					"numoutlets" : 0,
					"patching_rect" : [ 638.413818, 31.0, 363.0, 74.0 ],
					"style" : "",
					"text" : "Take an incoming list and either clip or scale it.\n\n@N/A = (if no attribute is given, a single argument sets clip range)\n@mode = whether to clip or scale incoming list (clip (0 - 15), scale (min, max, min, max))"
				}

			}
, 			{
				"box" : 				{
					"id" : "obj-343",
					"maxclass" : "newobj",
					"numinlets" : 1,
					"numoutlets" : 4,
					"outlettype" : [ "int", "int", "int", "int" ],
					"patching_rect" : [ 429.5, 207.0, 73.0, 22.0 ],
					"style" : "",
					"text" : "unpack i i i i"
				}

			}
, 			{
				"box" : 				{
					"id" : "obj-342",
					"maxclass" : "newobj",
					"numinlets" : 3,
					"numoutlets" : 1,
					"outlettype" : [ "" ],
					"patching_rect" : [ 353.0, 207.0, 55.0, 22.0 ],
					"style" : "",
					"text" : "clip 0 15"
				}

			}
, 			{
				"box" : 				{
					"id" : "obj-328",
					"maxclass" : "newobj",
					"numinlets" : 3,
					"numoutlets" : 3,
					"outlettype" : [ "", "", "" ],
					"patching_rect" : [ 319.0, 117.981232, 172.0, 22.0 ],
					"style" : "",
					"text" : "route clip scale"
				}

			}
, 			{
				"box" : 				{
					"fontface" : 0,
					"fontname" : "Arial",
					"fontsize" : 12.0,
					"id" : "obj-330",
					"maxclass" : "newobj",
					"numinlets" : 2,
					"numoutlets" : 2,
					"outlettype" : [ "", "" ],
					"patching_rect" : [ 319.0, 78.962463, 288.0, 22.0 ],
					"style" : "",
					"text" : "route mode"
				}

			}
, 			{
				"box" : 				{
					"color" : [ 1.0, 0.0, 0.0, 1.0 ],
					"fontface" : 0,
					"fontname" : "Arial",
					"fontsize" : 12.0,
					"id" : "obj-331",
					"maxclass" : "newobj",
					"numinlets" : 1,
					"numoutlets" : 2,
					"outlettype" : [ "", "" ],
					"patching_rect" : [ 319.0, 31.0, 288.0, 22.0 ],
					"style" : "",
					"text" : "patcherargs"
				}

			}
, 			{
				"box" : 				{
					"id" : "obj-10",
					"maxclass" : "comment",
					"numinlets" : 1,
					"numoutlets" : 0,
					"patching_rect" : [ 120.0, 314.822021, 164.0, 20.0 ],
					"style" : "",
					"text" : "regroup back into 16 item list"
				}

			}
, 			{
				"box" : 				{
					"id" : "obj-8",
					"linecount" : 3,
					"maxclass" : "comment",
					"numinlets" : 1,
					"numoutlets" : 0,
					"patching_rect" : [ 168.0, 133.25, 122.0, 47.0 ],
					"style" : "",
					"text" : "iterate through list and clip to maximum LED brightness"
				}

			}
, 			{
				"box" : 				{
					"id" : "obj-6",
					"maxclass" : "comment",
					"numinlets" : 1,
					"numoutlets" : 0,
					"patching_rect" : [ 155.0, 78.0, 77.0, 20.0 ],
					"style" : "",
					"text" : "filter repeats"
				}

			}
, 			{
				"box" : 				{
					"id" : "obj-4",
					"maxclass" : "comment",
					"numinlets" : 1,
					"numoutlets" : 0,
					"patching_rect" : [ 85.0, 363.277588, 67.0, 20.0 ],
					"style" : "",
					"text" : "clipped list"
				}

			}
, 			{
				"box" : 				{
					"id" : "obj-2",
					"maxclass" : "comment",
					"numinlets" : 1,
					"numoutlets" : 0,
					"patching_rect" : [ 116.0, 36.0, 102.0, 20.0 ],
					"style" : "",
					"text" : "from summed list"
				}

			}
, 			{
				"box" : 				{
					"id" : "obj-122",
					"maxclass" : "newobj",
					"numinlets" : 2,
					"numoutlets" : 2,
					"outlettype" : [ "", "" ],
					"patching_rect" : [ 80.0, 78.75, 62.0, 22.0 ],
					"style" : "",
					"text" : "zl change"
				}

			}
, 			{
				"box" : 				{
					"id" : "obj-109",
					"maxclass" : "newobj",
					"numinlets" : 1,
					"numoutlets" : 2,
					"outlettype" : [ "", "zlclear" ],
					"patching_rect" : [ 80.0, 118.5, 79.0, 22.0 ],
					"style" : "",
					"text" : "t l zlclear"
				}

			}
, 			{
				"box" : 				{
					"id" : "obj-108",
					"maxclass" : "newobj",
					"numinlets" : 3,
					"numoutlets" : 1,
					"outlettype" : [ "" ],
					"patching_rect" : [ 45.0, 272.366577, 55.0, 22.0 ],
					"style" : "",
					"text" : "clip 0 15"
				}

			}
, 			{
				"box" : 				{
					"id" : "obj-106",
					"maxclass" : "newobj",
					"numinlets" : 2,
					"numoutlets" : 2,
					"outlettype" : [ "", "" ],
					"patching_rect" : [ 45.0, 312.670258, 70.0, 22.0 ],
					"style" : "",
					"text" : "zl group 16"
				}

			}
, 			{
				"box" : 				{
					"id" : "obj-96",
					"maxclass" : "newobj",
					"numinlets" : 2,
					"numoutlets" : 2,
					"outlettype" : [ "", "" ],
					"patching_rect" : [ 80.0, 158.25, 49.0, 22.0 ],
					"style" : "",
					"text" : "zl iter 1"
				}

			}
, 			{
				"box" : 				{
					"comment" : "from summed list",
					"id" : "obj-132",
					"maxclass" : "inlet",
					"numinlets" : 0,
					"numoutlets" : 1,
					"outlettype" : [ "" ],
					"patching_rect" : [ 80.0, 31.0, 30.0, 30.0 ],
					"style" : ""
				}

			}
, 			{
				"box" : 				{
					"comment" : "clipped list",
					"id" : "obj-133",
					"maxclass" : "outlet",
					"numinlets" : 1,
					"numoutlets" : 0,
					"patching_rect" : [ 45.0, 358.277588, 30.0, 30.0 ],
					"style" : ""
				}

			}
 ],
		"lines" : [ 			{
				"patchline" : 				{
					"color" : [ 0.501961, 0.0, 0.0, 1.0 ],
					"destination" : [ "obj-342", 0 ],
					"disabled" : 0,
					"hidden" : 0,
					"source" : [ "obj-1", 1 ]
				}

			}
, 			{
				"patchline" : 				{
					"color" : [ 1.0, 0.501961, 0.0, 1.0 ],
					"destination" : [ "obj-7", 0 ],
					"disabled" : 0,
					"hidden" : 0,
					"midpoints" : [ 328.5, 188.455505, 54.5, 188.455505 ],
					"source" : [ "obj-1", 0 ]
				}

			}
, 			{
				"patchline" : 				{
					"color" : [ 1.0, 0.0, 1.0, 1.0 ],
					"destination" : [ "obj-133", 0 ],
					"disabled" : 0,
					"hidden" : 0,
					"source" : [ "obj-106", 0 ]
				}

			}
, 			{
				"patchline" : 				{
					"color" : [ 0.0, 1.0, 0.0, 1.0 ],
					"destination" : [ "obj-106", 0 ],
					"disabled" : 0,
					"hidden" : 0,
					"source" : [ "obj-108", 0 ]
				}

			}
, 			{
				"patchline" : 				{
					"color" : [ 0.0, 0.0, 0.0, 1.0 ],
					"destination" : [ "obj-106", 0 ],
					"disabled" : 0,
					"hidden" : 0,
					"midpoints" : [ 149.5, 149.0, 33.0, 149.0, 33.0, 305.0, 54.5, 305.0 ],
					"source" : [ "obj-109", 1 ]
				}

			}
, 			{
				"patchline" : 				{
					"color" : [ 0.0, 0.501961, 1.0, 1.0 ],
					"destination" : [ "obj-96", 0 ],
					"disabled" : 0,
					"hidden" : 0,
					"source" : [ "obj-109", 0 ]
				}

			}
, 			{
				"patchline" : 				{
					"color" : [ 0.0, 0.501961, 1.0, 1.0 ],
					"destination" : [ "obj-109", 0 ],
					"disabled" : 0,
					"hidden" : 0,
					"source" : [ "obj-122", 0 ]
				}

			}
, 			{
				"patchline" : 				{
					"color" : [ 0.0, 0.501961, 1.0, 1.0 ],
					"destination" : [ "obj-122", 0 ],
					"disabled" : 0,
					"hidden" : 0,
					"source" : [ "obj-132", 0 ]
				}

			}
, 			{
				"patchline" : 				{
					"color" : [ 1.0, 0.0, 0.0, 1.0 ],
					"destination" : [ "obj-1", 0 ],
					"disabled" : 0,
					"hidden" : 0,
					"source" : [ "obj-328", 0 ]
				}

			}
, 			{
				"patchline" : 				{
					"color" : [ 1.0, 0.0, 0.0, 1.0 ],
					"destination" : [ "obj-5", 0 ],
					"disabled" : 0,
					"hidden" : 0,
					"source" : [ "obj-328", 1 ]
				}

			}
, 			{
				"patchline" : 				{
					"color" : [ 1.0, 0.0, 0.0, 1.0 ],
					"destination" : [ "obj-328", 0 ],
					"disabled" : 0,
					"hidden" : 0,
					"source" : [ "obj-330", 0 ]
				}

			}
, 			{
				"patchline" : 				{
					"color" : [ 1.0, 0.0, 0.0, 1.0 ],
					"destination" : [ "obj-330", 0 ],
					"disabled" : 0,
					"hidden" : 0,
					"midpoints" : [ 597.5, 70.406891, 328.5, 70.406891 ],
					"source" : [ "obj-331", 1 ]
				}

			}
, 			{
				"patchline" : 				{
					"color" : [ 0.501961, 0.0, 0.0, 1.0 ],
					"destination" : [ "obj-342", 0 ],
					"disabled" : 0,
					"hidden" : 0,
					"midpoints" : [ 328.5, 64.0, 309.0, 64.0, 309.0, 198.0, 362.5, 198.0 ],
					"source" : [ "obj-331", 0 ]
				}

			}
, 			{
				"patchline" : 				{
					"color" : [ 0.501961, 0.0, 0.0, 1.0 ],
					"destination" : [ "obj-108", 2 ],
					"disabled" : 0,
					"hidden" : 0,
					"midpoints" : [ 362.5, 238.101257, 90.5, 238.101257 ],
					"source" : [ "obj-342", 0 ]
				}

			}
, 			{
				"patchline" : 				{
					"color" : [ 1.0, 0.0, 0.0, 1.0 ],
					"destination" : [ "obj-9", 4 ],
					"disabled" : 0,
					"hidden" : 0,
					"midpoints" : [ 493.0, 266.934601, 196.0, 266.934601 ],
					"source" : [ "obj-343", 3 ]
				}

			}
, 			{
				"patchline" : 				{
					"color" : [ 1.0, 0.0, 0.0, 1.0 ],
					"destination" : [ "obj-9", 3 ],
					"disabled" : 0,
					"hidden" : 0,
					"midpoints" : [ 475.0, 259.934601, 177.5, 259.934601 ],
					"source" : [ "obj-343", 2 ]
				}

			}
, 			{
				"patchline" : 				{
					"color" : [ 1.0, 0.0, 0.0, 1.0 ],
					"destination" : [ "obj-9", 2 ],
					"disabled" : 0,
					"hidden" : 0,
					"midpoints" : [ 457.0, 252.601257, 159.0, 252.601257 ],
					"source" : [ "obj-343", 1 ]
				}

			}
, 			{
				"patchline" : 				{
					"color" : [ 1.0, 0.0, 0.0, 1.0 ],
					"destination" : [ "obj-9", 1 ],
					"disabled" : 0,
					"hidden" : 0,
					"midpoints" : [ 439.0, 245.601257, 140.5, 245.601257 ],
					"source" : [ "obj-343", 0 ]
				}

			}
, 			{
				"patchline" : 				{
					"color" : [ 1.0, 0.0, 0.0, 1.0 ],
					"destination" : [ "obj-343", 0 ],
					"disabled" : 0,
					"hidden" : 0,
					"source" : [ "obj-5", 1 ]
				}

			}
, 			{
				"patchline" : 				{
					"color" : [ 1.0, 0.501961, 0.0, 1.0 ],
					"destination" : [ "obj-7", 0 ],
					"disabled" : 0,
					"hidden" : 0,
					"midpoints" : [ 405.0, 188.455505, 54.5, 188.455505 ],
					"source" : [ "obj-5", 0 ]
				}

			}
, 			{
				"patchline" : 				{
					"color" : [ 0.0, 1.0, 0.0, 1.0 ],
					"destination" : [ "obj-108", 0 ],
					"disabled" : 0,
					"hidden" : 0,
					"source" : [ "obj-7", 0 ]
				}

			}
, 			{
				"patchline" : 				{
					"color" : [ 1.0, 1.0, 0.0, 1.0 ],
					"destination" : [ "obj-9", 0 ],
					"disabled" : 0,
					"hidden" : 0,
					"midpoints" : [ 89.5, 230.683289, 122.0, 230.683289 ],
					"source" : [ "obj-7", 1 ]
				}

			}
, 			{
				"patchline" : 				{
					"color" : [ 1.0, 1.0, 0.0, 1.0 ],
					"destination" : [ "obj-106", 0 ],
					"disabled" : 0,
					"hidden" : 0,
					"source" : [ "obj-9", 0 ]
				}

			}
, 			{
				"patchline" : 				{
					"color" : [ 0.0, 0.501961, 1.0, 1.0 ],
					"destination" : [ "obj-7", 1 ],
					"disabled" : 0,
					"hidden" : 0,
					"source" : [ "obj-96", 0 ]
				}

			}
 ],
		"styles" : [ 			{
				"name" : "AudioStatus_Menu",
				"default" : 				{
					"bgfillcolor" : 					{
						"type" : "color",
						"color" : [ 0.294118, 0.313726, 0.337255, 1 ],
						"color1" : [ 0.454902, 0.462745, 0.482353, 0.0 ],
						"color2" : [ 0.290196, 0.309804, 0.301961, 1.0 ],
						"angle" : 270.0,
						"proportion" : 0.39,
						"autogradient" : 0
					}

				}
,
				"parentstyle" : "",
				"multi" : 0
			}
, 			{
				"name" : "ksliderWhite",
				"default" : 				{
					"color" : [ 1.0, 1.0, 1.0, 1.0 ]
				}
,
				"parentstyle" : "",
				"multi" : 0
			}
, 			{
				"name" : "newobjBlue-1",
				"default" : 				{
					"accentcolor" : [ 0.317647, 0.654902, 0.976471, 1.0 ]
				}
,
				"parentstyle" : "",
				"multi" : 0
			}
, 			{
				"name" : "newobjBrown-1",
				"default" : 				{
					"accentcolor" : [ 0.654902, 0.572549, 0.376471, 1.0 ]
				}
,
				"parentstyle" : "",
				"multi" : 0
			}
, 			{
				"name" : "newobjCyan-1",
				"default" : 				{
					"accentcolor" : [ 0.029546, 0.773327, 0.821113, 1.0 ]
				}
,
				"parentstyle" : "",
				"multi" : 0
			}
, 			{
				"name" : "newobjGreen-1",
				"default" : 				{
					"accentcolor" : [ 0.0, 0.533333, 0.168627, 1.0 ]
				}
,
				"parentstyle" : "",
				"multi" : 0
			}
, 			{
				"name" : "newobjYellow-1",
				"default" : 				{
					"fontsize" : [ 12.059008 ],
					"accentcolor" : [ 0.82517, 0.78181, 0.059545, 1.0 ]
				}
,
				"parentstyle" : "",
				"multi" : 0
			}
, 			{
				"name" : "numberGold-1",
				"default" : 				{
					"accentcolor" : [ 0.764706, 0.592157, 0.101961, 1.0 ]
				}
,
				"parentstyle" : "",
				"multi" : 0
			}
, 			{
				"name" : "rsliderGold",
				"default" : 				{
					"bgcolor" : [ 0.764706, 0.592157, 0.101961, 1.0 ],
					"color" : [ 0.646639, 0.821777, 0.854593, 1.0 ]
				}
,
				"parentstyle" : "",
				"multi" : 0
			}
 ]
	}

}
